# xmcd
# Track frame offsets:
# 150
# 15582
# 26842
# 42530
# 61937
# 78655
# 94067
# 110232
# 122780
# 136492
# 151630
# 170435
# 174747
#
# Disc length: 2625 seconds
# Revision: 0
# Processed by: cddbd v1.4PL0 Copyright (c) Steve Scherf et al.
# Submitted via: VisiTrax 2.9.5.180 - For more info visit www.synapsa.com
#
DISCID=ae0a3f0d
DTITLE=Cotton Yancey - The last of the Zane Grey Cowboys
DYEAR=1994
DGENRE=
TTITLE0=The bottom broke my fall
TTITLE1=One hell of a note
TTITLE2=Is your radio on
TTITLE3=That old train
TTITLE4=Hopelessly in love with you
TTITLE5=You don't have to go home
TTITLE6=Inside information
TTITLE7=I shoulda asked her faster
TTITLE8=Near Mrs.
TTITLE9=Almost all over you
TTITLE10=Finally gettin' over you
TTITLE11=Prelude to the Zane Grey Cowboys
TTITLE12=The last of the Zane Grey Cowboys
EXTD=
EXTT0=
EXTT1=
EXTT2=
EXTT3=
EXTT4=
EXTT5=
EXTT6=
EXTT7=
EXTT8=
EXTT9=
EXTT10=
EXTT11=
EXTT12=
PLAYORDER=
